<?xml version="1.0" encoding="utf-8"?>
<!-- Generator: Adobe Illustrator 23.0.1, SVG Export Plug-In . SVG Version: 6.00 Build 0)  -->
<svg version="1.1" id="Layer_1" xmlns="http://www.w3.org/2000/svg" xmlns:xlink="http://www.w3.org/1999/xlink" width="24" height="72" viewBox="0 0 24 72">
<style type="text/css">
	.st0{fill:#BBBBBB;}
	.st1{fill:#F7DDBA;}
	.st2{fill:#FBB03B;}
</style>
<g>
	<polygon id="bolt" class="st0" points="15,17 9,13 1,23 9,18 15,22 23,12"/>
	<path class="st0" d="M18.8,1.5h-7.7V3h1.4l-0.5,5.4h-0.2c-0.8,0-1.5,0.7-1.5,1.5v0.8h3.8v3.8l0.8,0.8l0.8-0.8v-3.8h3.8V9.9
		c0-0.8-0.7-1.5-1.5-1.5h-0.2L17.4,3h1.4V1.5z"/></g>
<g>
	<polygon class="st2" points="15,41 9,37 1,47 9,42 15,46 23,36"/>
	<path class="st0" d="M18.8,25.8h-7.7v1.5h1.4l-0.5,5.4h-0.2c-0.8,0-1.5,0.7-1.5,1.5V35h3.8v3.8l0.8,0.8l0.8-0.8V35h3.8v-0.8
		c0-0.8-0.7-1.5-1.5-1.5h-0.2l-0.5-5.4h1.4V25.8z"/>
</g>
<g>
	<polygon class="st2" points="15,65 9,61 1,71 9,66 15,70 23,60"/>
	<path class="st2" d="M18.8,50.1h-7.7v1.5h1.4l-0.5,5.4h-0.2c-0.8,0-1.5,0.7-1.5,1.5v0.8h3.8v3.8l0.8,0.8l0.8-0.8v-3.8h3.8v-0.8
		c0-0.8-0.7-1.5-1.5-1.5h-0.2l-0.5-5.4h1.4V50.1z"/>
</g>
</svg>
